# Blender v2.79 (sub 0) OBJ File: 'mushroom.blend'
# www.blender.org
o Cylinder_Cylinder.002
v 0.010112 0.484206 -0.000176
v 0.010112 -0.153472 -0.229207
v 0.010112 0.484206 -0.270523
v 0.144734 -0.153472 -0.185466
v 0.169018 0.484206 -0.218891
v 0.227934 -0.153472 -0.070950
v 0.267228 0.484206 -0.083717
v 0.227934 -0.153472 0.070599
v 0.267228 0.484206 0.083366
v 0.144734 -0.153472 0.185115
v 0.169018 0.484206 0.218540
v 0.010112 -0.153472 0.228856
v 0.010112 0.484206 0.270172
v -0.124509 -0.153472 0.185115
v -0.148794 0.484206 0.218540
v -0.207710 -0.153472 0.070599
v -0.247003 0.484206 0.083366
v -0.207710 -0.153472 -0.070950
v -0.247003 0.484206 -0.083718
v -0.124509 -0.153472 -0.185466
v -0.148794 0.484206 -0.218891
v 0.010112 0.404536 -0.343136
v 0.211700 0.404536 -0.277637
v 0.336287 0.404536 -0.106156
v 0.336287 0.404536 0.105805
v 0.211699 0.404536 0.277285
v 0.010112 0.404536 0.342785
v -0.191475 0.404536 0.277285
v -0.316063 0.404536 0.105805
v -0.316063 0.404536 -0.106156
v -0.191475 0.404536 -0.277637
v 0.340173 -0.149050 -0.454465
v 0.544162 -0.149050 -0.173699
v 0.544162 -0.149050 0.173348
v 0.340173 -0.149050 0.454114
v 0.010112 -0.149050 0.561358
v -0.319949 -0.149050 0.454114
v -0.523937 -0.149050 0.173348
v -0.523937 -0.149050 -0.173699
v -0.319948 -0.149050 -0.454465
v 0.010112 -0.149050 -0.561709
v 0.010112 0.043158 -0.509401
v 0.309428 0.043158 -0.412148
v 0.494415 0.043158 -0.157535
v 0.494415 0.043158 0.157184
v 0.309428 0.043158 0.411797
v 0.010112 0.043158 0.509050
v -0.289203 0.043158 0.411797
v -0.474190 0.043158 0.157184
v -0.474190 0.043158 -0.157535
v -0.289203 0.043158 -0.412148
v -0.413454 -0.050488 0.360627
v -0.140402 -0.202641 -0.285244
v 0.144734 -0.457125 -0.185466
v 0.010112 -0.505369 -0.000176
v 0.010112 -0.457125 -0.229207
v 0.227934 -0.457125 -0.070950
v 0.227934 -0.457125 0.070599
v 0.144734 -0.457125 0.185115
v 0.010112 -0.457125 0.228856
v -0.124509 -0.457125 0.185115
v -0.207710 -0.457125 0.070599
v -0.207710 -0.457125 -0.070950
v -0.124509 -0.457125 -0.185466
v -0.013611 -0.489893 -0.041265
v 0.007217 -0.489575 0.000427
v -0.066714 -0.468747 -0.023658
vt 0.270136 0.856659
vt 0.386015 0.910056
vt 0.262492 0.910056
vt 0.844735 0.873941
vt 0.844735 0.747882
vt 0.911005 0.771957
vt 0.204852 0.847894
vt 0.128783 0.798364
vt 0.216953 0.805421
vt 0.872722 0.226194
vt 0.756843 0.172797
vt 0.880366 0.172797
vt 0.778465 0.771957
vt 0.078477 0.847894
vt 0.056634 0.805421
vt 0.262492 0.737259
vt 0.393659 0.790656
vt 0.270136 0.790656
vt 0.737508 0.834986
vt 0.737508 0.533503
vt 0.689731 0.586070
vt 0.701178 0.506111
vt 0.872722 0.119400
vt 0.749199 0.053397
vt 0.872722 0.053397
vt 0.737508 0.912895
vt 0.728485 0.596533
vt 0.689731 0.684905
vt 0.445438 0.978250
vt 0.504469 0.847317
vt 0.504469 0.978250
vt 0.778465 0.975925
vt 0.728485 0.674442
vt 0.701178 0.764864
vt 0.880366 0.345594
vt 0.749199 0.292196
vt 0.872722 0.292196
vt 0.844735 1.000000
vt 0.921523 0.747882
vt 0.871217 0.698352
vt 0.943366 0.705409
vt 0.749199 0.226194
vt 0.911005 0.975925
vt 0.864650 0.742319
vt 0.783047 0.705409
vt 0.393659 0.856659
vt 0.951962 0.912895
vt 0.749198 0.109845
vt 0.691924 0.162412
vt 0.711699 0.082453
vt 0.756843 0.000000
vt 0.880366 0.000000
vt 0.951962 0.834986
vt 0.733610 0.172875
vt 0.691924 0.261247
vt 0.880366 0.172797
vt 0.749199 0.119400
vt 0.733610 0.250784
vt 0.711699 0.341205
vt 0.556821 0.403926
vt 0.527459 0.285204
vt 0.527459 0.138455
vt 0.556821 0.019732
vt 0.750141 0.526971
vt 0.881056 0.516493
vt 0.988181 0.526971
vt 0.545193 0.827585
vt 0.528197 0.708862
vt 0.528197 0.562113
vt 0.545193 0.443390
vt 0.011819 0.626983
vt 0.118944 0.616505
vt 0.249859 0.626983
vt 0.222719 0.523670
vt 0.166577 0.348234
vt 0.222719 0.368630
vt 0.085071 0.473664
vt 0.131879 0.294836
vt 0.000000 0.180924
vt 0.131879 0.228834
vt 0.166577 0.175437
vt 0.222719 0.000000
vt 0.222719 0.155041
vt 0.278861 0.175437
vt 0.360367 0.050006
vt 0.313559 0.228834
vt 0.445438 0.180924
vt 0.313559 0.294837
vt 0.360367 0.473664
vt 0.278861 0.348234
vt 0.118130 0.523670
vt 0.262492 0.535225
vt 0.000000 0.535225
vt 0.445438 0.554576
vt 0.464180 0.423658
vt 0.445438 0.716399
vt 0.464180 0.847317
vt 0.881870 0.423658
vt 1.000000 0.435213
vt 0.737508 0.435213
vt 0.445438 0.130918
vt 0.477816 0.000000
vt 0.445438 0.292741
vt 0.477816 0.423658
vt 0.353332 0.630465
vt 0.297190 0.544066
vt 0.353332 0.523670
vt 0.409474 0.544066
vt 0.444172 0.597464
vt 0.444172 0.663466
vt 0.409474 0.716863
vt 0.353332 0.737259
vt 0.297190 0.716863
vt 0.262492 0.663466
vt 0.262492 0.597464
vt 0.135350 0.842331
vt 0.386015 0.737259
vt 0.445438 0.847317
vt 0.737508 0.737472
vt 0.756843 0.345594
vt 0.795148 0.747882
vt 0.756843 0.172797
vt 0.749198 0.313813
vt 0.000000 0.342747
vt 0.085071 0.050006
vt 0.445438 0.342747
vn 1.0000 0.0000 0.0000
vn 0.0000 1.0000 0.0000
vn 0.2335 0.6550 -0.7186
vn -0.3090 0.0000 -0.9511
vn 0.6113 0.6550 -0.4441
vn 0.3090 0.0000 0.9511
vn 0.7556 0.6550 0.0000
vn -0.8090 0.0000 0.5878
vn 0.6113 0.6550 0.4441
vn -0.8090 0.0000 -0.5878
vn 0.2335 0.6550 0.7186
vn 0.8090 0.0000 -0.5878
vn -0.2335 0.6550 0.7186
vn 0.3090 0.0000 -0.9511
vn -0.6113 0.6550 0.4441
vn 0.8090 0.0000 0.5878
vn -0.7556 0.6550 0.0000
vn -0.3090 0.0000 0.9511
vn -0.6113 0.6550 -0.4441
vn -1.0000 0.0000 0.0000
vn -0.2335 0.6550 -0.7186
vn -0.2831 0.4009 -0.8713
vn -0.7412 0.4009 -0.5385
vn -0.9161 0.4009 0.0000
vn -0.7412 0.4009 0.5385
vn -0.2831 0.4009 0.8713
vn 0.2831 0.4009 0.8713
vn 0.7412 0.4009 0.5385
vn 0.9161 0.4009 0.0000
vn 0.7412 0.4009 -0.5385
vn 0.2831 0.4009 -0.8713
vn 0.0043 -0.9999 -0.0133
vn 0.0113 -0.9999 -0.0082
vn 0.0140 -0.9999 0.0000
vn 0.0113 -0.9999 0.0082
vn 0.0043 -0.9999 0.0133
vn -0.0043 -0.9999 0.0133
vn -0.0113 -0.9999 0.0082
vn -0.0140 -0.9999 0.0000
vn -0.0113 -0.9999 -0.0082
vn -0.0043 -0.9999 -0.0133
vn 0.2992 0.2506 -0.9207
vn 0.7832 0.2506 -0.5690
vn 0.9681 0.2506 0.0000
vn 0.7832 0.2506 0.5690
vn 0.2992 0.2506 0.9207
vn -0.2992 0.2506 0.9207
vn -0.7832 0.2506 0.5690
vn -0.9681 0.2506 0.0000
vn -0.7832 0.2506 -0.5690
vn -0.2992 0.2506 -0.9207
vn 0.0668 -0.9763 -0.2057
vn 0.1749 -0.9763 -0.1271
vn 0.2162 -0.9763 0.0000
vn 0.1749 -0.9763 0.1271
vn 0.0668 -0.9763 0.2057
vn -0.0668 -0.9763 0.2057
vn -0.1749 -0.9763 0.1271
vn -0.2162 -0.9763 0.0000
vn -0.1749 -0.9763 -0.1271
vn -0.0668 -0.9763 -0.2057
s off
f 8/1/1 57/2/1 6/3/1
f 1/4/2 5/5/2 3/6/2
f 3/7/3 23/8/3 22/9/3
f 2/10/4 64/11/4 20/12/4
f 1/4/2 7/13/2 5/5/2
f 23/8/5 7/14/5 24/15/5
f 12/16/6 59/17/6 10/18/6
f 1/4/2 9/19/2 7/13/2
f 7/20/7 25/21/7 24/22/7
f 16/23/8 61/24/8 14/25/8
f 1/4/2 11/26/2 9/19/2
f 9/27/9 26/28/9 25/21/9
f 20/29/10 63/30/10 18/31/10
f 1/4/2 13/32/2 11/26/2
f 11/33/11 27/34/11 26/28/11
f 6/35/12 54/36/12 4/37/12
f 1/4/2 15/38/2 13/32/2
f 13/39/13 28/40/13 27/41/13
f 4/37/14 56/42/14 2/10/14
f 1/4/2 17/43/2 15/38/2
f 15/44/15 29/45/15 28/40/15
f 10/18/16 58/46/16 8/1/16
f 1/4/2 19/47/2 17/43/2
f 17/48/17 30/49/17 29/50/17
f 14/25/18 60/51/18 12/52/18
f 1/4/2 21/53/2 19/47/2
f 19/54/19 31/55/19 30/49/19
f 18/56/20 62/57/20 16/23/20
f 1/4/2 3/6/2 21/53/2
f 21/58/21 22/59/21 31/55/21
f 31/55/22 42/60/22 51/61/22
f 30/49/23 51/61/23 50/62/23
f 29/50/24 50/62/24 49/63/24
f 28/40/25 49/64/25 48/65/25
f 27/41/26 48/65/26 47/66/26
f 26/28/27 47/67/27 46/68/27
f 45/69/28 26/28/28 46/68/28
f 24/22/29 45/69/29 44/70/29
f 23/8/30 44/71/30 43/72/30
f 22/9/31 43/72/31 42/73/31
f 41/74/32 4/75/32 2/76/32
f 32/77/33 6/78/33 4/75/33
f 6/78/34 34/79/34 8/80/34
f 34/79/35 10/81/35 8/80/35
f 10/81/36 36/82/36 12/83/36
f 36/82/37 14/84/37 12/83/37
f 37/85/38 16/86/38 14/84/38
f 38/87/39 18/88/39 16/86/39
f 18/88/40 40/89/40 20/90/40
f 20/90/41 41/74/41 2/76/41
f 42/73/42 32/91/42 41/92/42
f 43/72/43 33/93/43 32/91/43
f 44/70/44 34/94/44 33/95/44
f 45/69/45 35/96/45 34/94/45
f 35/96/46 47/67/46 36/97/46
f 47/66/47 37/98/47 36/99/47
f 48/65/48 38/100/48 37/98/48
f 49/63/49 39/101/49 38/102/49
f 50/62/50 40/103/50 39/101/50
f 51/61/51 41/104/51 40/103/51
f 55/105/52 56/106/52 54/107/52
f 55/105/53 54/107/53 57/108/53
f 55/105/54 57/108/54 58/109/54
f 55/105/55 58/109/55 59/110/55
f 55/105/56 59/110/56 60/111/56
f 55/105/57 60/111/57 61/112/57
f 55/105/58 61/112/58 62/113/58
f 55/105/59 62/113/59 63/114/59
f 55/105/60 63/114/60 64/115/60
f 55/105/61 64/115/61 56/106/61
f 8/1/1 58/46/1 57/2/1
f 3/7/3 5/116/3 23/8/3
f 2/10/4 56/42/4 64/11/4
f 23/8/5 5/116/5 7/14/5
f 12/16/6 60/117/6 59/17/6
f 7/20/7 9/27/7 25/21/7
f 16/23/8 62/57/8 61/24/8
f 9/27/9 11/33/9 26/28/9
f 20/29/10 64/118/10 63/30/10
f 11/33/11 13/119/11 27/34/11
f 6/35/12 57/120/12 54/36/12
f 13/39/13 15/44/13 28/40/13
f 4/37/14 54/36/14 56/42/14
f 15/44/15 17/121/15 29/45/15
f 10/18/16 59/17/16 58/46/16
f 17/48/17 19/54/17 30/49/17
f 14/25/18 61/24/18 60/51/18
f 19/54/19 21/58/19 31/55/19
f 18/56/20 63/122/20 62/57/20
f 21/58/21 3/123/21 22/59/21
f 31/55/22 22/59/22 42/60/22
f 30/49/23 31/55/23 51/61/23
f 29/50/24 30/49/24 50/62/24
f 28/40/25 29/45/25 49/64/25
f 27/41/26 28/40/26 48/65/26
f 26/28/27 27/34/27 47/67/27
f 45/69/28 25/21/28 26/28/28
f 24/22/29 25/21/29 45/69/29
f 23/8/30 24/15/30 44/71/30
f 22/9/31 23/8/31 43/72/31
f 41/74/32 32/77/32 4/75/32
f 32/77/33 33/124/33 6/78/33
f 6/78/34 33/124/34 34/79/34
f 34/79/35 35/125/35 10/81/35
f 10/81/36 35/125/36 36/82/36
f 36/82/37 37/85/37 14/84/37
f 37/85/38 38/87/38 16/86/38
f 38/87/39 39/126/39 18/88/39
f 18/88/40 39/126/40 40/89/40
f 20/90/41 40/89/41 41/74/41
f 42/73/42 43/72/42 32/91/42
f 43/72/43 44/71/43 33/93/43
f 44/70/44 45/69/44 34/94/44
f 45/69/45 46/68/45 35/96/45
f 35/96/46 46/68/46 47/67/46
f 47/66/47 48/65/47 37/98/47
f 48/65/48 49/64/48 38/100/48
f 49/63/49 50/62/49 39/101/49
f 50/62/50 51/61/50 40/103/50
f 51/61/51 42/60/51 41/104/51
