# Blender v2.79 (sub 0) OBJ File: ''
# www.blender.org
mtllib piston.mtl
o Cylinder
v 0.113682 0.060857 -0.007369
v 0.113682 1.922640 -0.007369
v 0.113682 0.060857 -1.228375
v 0.113682 1.922640 -1.228375
v 0.351889 0.060857 -1.204914
v 0.351889 1.922640 -1.204914
v 0.580941 0.060857 -1.135431
v 0.580941 1.922640 -1.135431
v 0.792037 0.060857 -1.022598
v 0.792037 1.922640 -1.022598
v 0.977064 0.060857 -0.870751
v 0.977064 1.922640 -0.870751
v 1.128912 0.060857 -0.685723
v 1.128912 1.922640 -0.685723
v 1.241745 0.060857 -0.474628
v 1.241745 1.922640 -0.474628
v 1.311227 0.060857 -0.245575
v 1.311227 1.922640 -0.245575
v 1.334689 0.060857 -0.007369
v 1.334689 1.922640 -0.007369
v 1.311227 0.060857 0.230837
v 1.311227 1.922640 0.230837
v 1.241745 0.060857 0.459890
v 1.241745 1.922640 0.459890
v 1.128912 0.060857 0.670986
v 1.128912 1.922640 0.670986
v 0.977064 0.060857 0.856013
v 0.977064 1.922640 0.856013
v 0.792037 0.060857 1.007861
v 0.792037 1.922640 1.007861
v 0.580941 0.060857 1.120694
v 0.580941 1.922640 1.120694
v 0.351889 0.060857 1.190176
v 0.351889 1.922640 1.190176
v 0.113682 0.060857 1.213637
v 0.113682 1.922640 1.213637
v -0.124525 0.060857 1.190176
v -0.124525 1.922640 1.190176
v -0.353577 0.060857 1.120694
v -0.353577 1.922640 1.120694
v -0.564673 0.060857 1.007860
v -0.564673 1.922640 1.007860
v -0.749700 0.060857 0.856012
v -0.749700 1.922640 0.856012
v -0.901548 0.060857 0.670985
v -0.901548 1.922640 0.670985
v -1.014381 0.060857 0.459889
v -1.014381 1.922640 0.459889
v -1.083863 0.060857 0.230837
v -1.083863 1.922640 0.230837
v -1.107324 0.060857 -0.007370
v -1.107324 1.922640 -0.007370
v -1.083862 0.060857 -0.245577
v -1.083862 1.922640 -0.245577
v -1.014380 0.060857 -0.474629
v -1.014380 1.922640 -0.474629
v -0.901546 0.060857 -0.685725
v -0.901546 1.922640 -0.685725
v -0.749698 0.060857 -0.870752
v -0.749698 1.922640 -0.870752
v -0.564671 0.060857 -1.022599
v -0.564671 1.922640 -1.022599
v -0.353575 0.060857 -1.135432
v -0.353575 1.922640 -1.135432
v -0.124522 0.060857 -1.204914
v -0.124522 1.922640 -1.204914
v 0.113682 1.112373 -1.228375
v 0.351889 1.112373 -1.204914
v 0.580941 1.112373 -1.135431
v 0.792037 1.112373 -1.022598
v 0.977064 1.112373 -0.870751
v 1.128912 1.112373 -0.685723
v 1.241745 1.112373 -0.474628
v 1.311227 1.112373 -0.245575
v 1.334689 1.112373 -0.007369
v 1.311227 1.112373 0.230837
v 1.241745 1.112373 0.459890
v 1.128912 1.112373 0.670986
v 0.977064 1.112373 0.856013
v 0.792037 1.112373 1.007861
v 0.580941 1.112373 1.120694
v 0.351889 1.112373 1.190176
v 0.113682 1.112373 1.213637
v -0.124525 1.112373 1.190176
v -0.353577 1.112373 1.120694
v -0.564673 1.112373 1.007860
v -0.749700 1.112373 0.856012
v -0.901548 1.112373 0.670985
v -1.014381 1.112373 0.459889
v -1.083863 1.112373 0.230837
v -1.107324 1.112373 -0.007370
v -1.083862 1.112373 -0.245577
v -1.014380 1.112373 -0.474629
v -0.901546 1.112373 -0.685725
v -0.749698 1.112373 -0.870752
v -0.564671 1.112373 -1.022599
v -0.353575 1.112373 -1.135432
v -0.124522 1.112373 -1.204914
vt 0.687979 0.197459
vt 0.891205 0.103927
vt 0.908492 0.139862
vt 0.229326 0.197459
vt 0.432553 0.103927
vt 0.449840 0.139863
vt 0.707626 0.565790
vt 0.707626 0.697459
vt 0.675684 0.697459
vt 0.675684 0.565790
vt 0.917305 0.178011
vt 0.407456 0.071586
vt 0.643741 0.868331
vt 0.643741 1.000000
vt 0.606181 1.000000
vt 0.606181 0.868331
vt 0.917305 0.216907
vt 0.375514 0.044083
vt 0.564446 1.000000
vt 0.564446 0.868331
vt 0.908492 0.255055
vt 0.337953 0.022473
vt 0.520141 1.000000
vt 0.520141 0.868331
vt 0.891205 0.290991
vt 0.296219 0.007588
vt 0.474968 1.000000
vt 0.474968 0.868331
vt 0.866108 0.323332
vt 0.251913 0.000000
vt 0.430662 1.000000
vt 0.430662 0.868331
vt 0.834166 0.350835
vt 0.206740 0.000000
vt 0.388928 1.000000
vt 0.388928 0.868331
vt 0.796606 0.372445
vt 0.162435 0.007588
vt 0.351367 1.000000
vt 0.351367 0.868331
vt 0.754871 0.387330
vt 0.120700 0.022473
vt 0.351367 0.526587
vt 0.351367 0.394918
vt 0.383310 0.394918
vt 0.383310 0.526587
vt 0.710566 0.394918
vt 0.083140 0.044082
vt 0.420870 0.394918
vt 0.420870 0.526587
vt 0.665392 0.394918
vt 0.051197 0.071586
vt 0.462605 0.394918
vt 0.462605 0.526587
vt 0.621087 0.387330
vt 0.026100 0.103927
vt 0.506910 0.394918
vt 0.506910 0.526587
vt 0.579352 0.372445
vt 0.008813 0.139862
vt 0.552083 0.394918
vt 0.552083 0.526587
vt 0.541792 0.350835
vt 0.000000 0.178011
vt 0.596389 0.394918
vt 0.596389 0.526587
vt 0.509850 0.323332
vt 0.000000 0.216907
vt 0.638124 0.394918
vt 0.638124 0.526587
vt 0.484753 0.290991
vt 0.008813 0.255055
vt 0.675684 0.394918
vt 0.675684 0.526587
vt 0.467465 0.255056
vt 0.026100 0.290991
vt 0.152919 0.701671
vt 0.000000 0.701671
vt 0.000000 0.674167
vt 0.152919 0.674167
vt 0.458653 0.216907
vt 0.051197 0.323331
vt 0.000000 0.641826
vt 0.152919 0.641826
vt 0.458653 0.178011
vt 0.083139 0.350835
vt 0.000000 0.605891
vt 0.152919 0.605891
vt 0.467465 0.139862
vt 0.120699 0.372445
vt 0.000000 0.567742
vt 0.152919 0.567742
vt 0.484753 0.103927
vt 0.162434 0.387330
vt 0.000000 0.528846
vt 0.152919 0.528846
vt 0.509850 0.071586
vt 0.206739 0.394918
vt 0.000000 0.490698
vt 0.152919 0.490698
vt 0.541792 0.044083
vt 0.251913 0.394918
vt 0.000000 0.454763
vt 0.152919 0.454762
vt 0.579352 0.022473
vt 0.296218 0.387330
vt 0.000000 0.422422
vt 0.152919 0.422422
vt 0.621087 0.007588
vt 0.337953 0.372445
vt 0.000000 0.394918
vt 0.152919 0.394918
vt 0.665392 0.000000
vt 0.375513 0.350835
vt 1.000000 0.565790
vt 1.000000 0.697459
vt 0.962440 0.697459
vt 0.962440 0.565790
vt 0.710566 0.000000
vt 0.407456 0.323332
vt 0.920705 0.697459
vt 0.920705 0.565790
vt 0.754871 0.007588
vt 0.432553 0.290991
vt 0.876400 0.697459
vt 0.876400 0.565790
vt 0.796606 0.022473
vt 0.449840 0.255056
vt 0.831226 0.697459
vt 0.831226 0.565790
vt 0.834166 0.044083
vt 0.458653 0.216907
vt 0.786921 0.697459
vt 0.786921 0.565790
vt 0.866108 0.071586
vt 0.458653 0.178011
vt 0.745186 0.697459
vt 0.745186 0.565790
vt 0.745186 0.394918
vt 0.707626 0.394918
vt 0.786921 0.394918
vt 0.831226 0.394918
vt 0.876400 0.394918
vt 0.920705 0.394918
vt 0.962440 0.394918
vt 1.000000 0.394918
vt 0.351367 0.422422
vt 0.351367 0.394918
vt 0.351367 0.454762
vt 0.351367 0.490698
vt 0.351367 0.528846
vt 0.351367 0.567742
vt 0.351367 0.605891
vt 0.351367 0.641826
vt 0.351367 0.674167
vt 0.351367 0.701671
vt 0.638124 0.697459
vt 0.675684 0.697459
vt 0.596389 0.697459
vt 0.552083 0.697459
vt 0.506910 0.697459
vt 0.462605 0.697459
vt 0.420870 0.697459
vt 0.383310 0.697459
vt 0.351367 0.697459
vt 0.388928 0.697459
vt 0.430662 0.697459
vt 0.474968 0.697459
vt 0.520141 0.697459
vt 0.564446 0.697459
vt 0.606181 0.697459
vt 0.643741 0.697459
vt 0.675684 0.394918
vn 0.0000 -1.0000 0.0000
vn 0.0000 1.0000 0.0000
vn 0.0980 0.0000 -0.9952
vn 0.2903 0.0000 -0.9569
vn 0.4714 0.0000 -0.8819
vn 0.6344 0.0000 -0.7730
vn 0.7730 0.0000 -0.6344
vn 0.8819 0.0000 -0.4714
vn 0.9569 0.0000 -0.2903
vn 0.9952 0.0000 -0.0980
vn 0.9952 0.0000 0.0980
vn 0.9569 0.0000 0.2903
vn 0.8819 0.0000 0.4714
vn 0.7730 0.0000 0.6344
vn 0.6344 0.0000 0.7730
vn 0.4714 0.0000 0.8819
vn 0.2903 0.0000 0.9569
vn 0.0980 0.0000 0.9952
vn -0.0980 0.0000 0.9952
vn -0.2903 0.0000 0.9569
vn -0.4714 0.0000 0.8819
vn -0.6344 0.0000 0.7730
vn -0.7730 0.0000 0.6344
vn -0.8819 0.0000 0.4714
vn -0.9569 0.0000 0.2903
vn -0.9952 0.0000 0.0980
vn -0.9952 0.0000 -0.0980
vn -0.9569 0.0000 -0.2903
vn -0.8819 0.0000 -0.4714
vn -0.7730 0.0000 -0.6344
vn -0.6344 0.0000 -0.7730
vn -0.4714 0.0000 -0.8819
vn -0.2903 0.0000 -0.9569
vn -0.0980 0.0000 -0.9952
usemtl piston
s off
f 1/1/1 3/2/1 5/3/1
f 2/4/2 6/5/2 4/6/2
f 67/7/3 4/8/3 6/9/3 68/10/3
f 1/1/1 5/3/1 7/11/1
f 2/4/2 8/12/2 6/5/2
f 68/13/4 6/14/4 8/15/4 69/16/4
f 1/1/1 7/11/1 9/17/1
f 2/4/2 10/18/2 8/12/2
f 69/16/5 8/15/5 10/19/5 70/20/5
f 1/1/1 9/17/1 11/21/1
f 2/4/2 12/22/2 10/18/2
f 70/20/6 10/19/6 12/23/6 71/24/6
f 1/1/1 11/21/1 13/25/1
f 2/4/2 14/26/2 12/22/2
f 71/24/7 12/23/7 14/27/7 72/28/7
f 1/1/1 13/25/1 15/29/1
f 2/4/2 16/30/2 14/26/2
f 72/28/8 14/27/8 16/31/8 73/32/8
f 1/1/1 15/29/1 17/33/1
f 2/4/2 18/34/2 16/30/2
f 73/32/9 16/31/9 18/35/9 74/36/9
f 1/1/1 17/33/1 19/37/1
f 2/4/2 20/38/2 18/34/2
f 74/36/10 18/35/10 20/39/10 75/40/10
f 1/1/1 19/37/1 21/41/1
f 2/4/2 22/42/2 20/38/2
f 75/43/11 20/44/11 22/45/11 76/46/11
f 1/1/1 21/41/1 23/47/1
f 2/4/2 24/48/2 22/42/2
f 76/46/12 22/45/12 24/49/12 77/50/12
f 1/1/1 23/47/1 25/51/1
f 2/4/2 26/52/2 24/48/2
f 77/50/13 24/49/13 26/53/13 78/54/13
f 1/1/1 25/51/1 27/55/1
f 2/4/2 28/56/2 26/52/2
f 78/54/14 26/53/14 28/57/14 79/58/14
f 1/1/1 27/55/1 29/59/1
f 2/4/2 30/60/2 28/56/2
f 79/58/15 28/57/15 30/61/15 80/62/15
f 1/1/1 29/59/1 31/63/1
f 2/4/2 32/64/2 30/60/2
f 80/62/16 30/61/16 32/65/16 81/66/16
f 1/1/1 31/63/1 33/67/1
f 2/4/2 34/68/2 32/64/2
f 81/66/17 32/65/17 34/69/17 82/70/17
f 1/1/1 33/67/1 35/71/1
f 2/4/2 36/72/2 34/68/2
f 82/70/18 34/69/18 36/73/18 83/74/18
f 1/1/1 35/71/1 37/75/1
f 2/4/2 38/76/2 36/72/2
f 83/77/19 36/78/19 38/79/19 84/80/19
f 1/1/1 37/75/1 39/81/1
f 2/4/2 40/82/2 38/76/2
f 84/80/20 38/79/20 40/83/20 85/84/20
f 1/1/1 39/81/1 41/85/1
f 2/4/2 42/86/2 40/82/2
f 85/84/21 40/83/21 42/87/21 86/88/21
f 1/1/1 41/85/1 43/89/1
f 2/4/2 44/90/2 42/86/2
f 86/88/22 42/87/22 44/91/22 87/92/22
f 1/1/1 43/89/1 45/93/1
f 2/4/2 46/94/2 44/90/2
f 87/92/23 44/91/23 46/95/23 88/96/23
f 1/1/1 45/93/1 47/97/1
f 2/4/2 48/98/2 46/94/2
f 88/96/24 46/95/24 48/99/24 89/100/24
f 1/1/1 47/97/1 49/101/1
f 2/4/2 50/102/2 48/98/2
f 89/100/25 48/99/25 50/103/25 90/104/25
f 1/1/1 49/101/1 51/105/1
f 2/4/2 52/106/2 50/102/2
f 90/104/26 50/103/26 52/107/26 91/108/26
f 1/1/1 51/105/1 53/109/1
f 2/4/2 54/110/2 52/106/2
f 91/108/27 52/107/27 54/111/27 92/112/27
f 1/1/1 53/109/1 55/113/1
f 2/4/2 56/114/2 54/110/2
f 92/115/28 54/116/28 56/117/28 93/118/28
f 1/1/1 55/113/1 57/119/1
f 2/4/2 58/120/2 56/114/2
f 93/118/29 56/117/29 58/121/29 94/122/29
f 1/1/1 57/119/1 59/123/1
f 2/4/2 60/124/2 58/120/2
f 94/122/30 58/121/30 60/125/30 95/126/30
f 1/1/1 59/123/1 61/127/1
f 2/4/2 62/128/2 60/124/2
f 95/126/31 60/125/31 62/129/31 96/130/31
f 1/1/1 61/127/1 63/131/1
f 2/4/2 64/132/2 62/128/2
f 96/130/32 62/129/32 64/133/32 97/134/32
f 1/1/1 63/131/1 65/135/1
f 2/4/2 66/136/2 64/132/2
f 97/134/33 64/133/33 66/137/33 98/138/33
f 1/1/1 65/135/1 3/2/1
f 2/4/2 4/6/2 66/136/2
f 98/138/34 66/137/34 4/8/34 67/7/34
f 65/139/34 98/138/34 67/7/34 3/140/34
f 63/141/33 97/134/33 98/138/33 65/139/33
f 61/142/32 96/130/32 97/134/32 63/141/32
f 59/143/31 95/126/31 96/130/31 61/142/31
f 57/144/30 94/122/30 95/126/30 59/143/30
f 55/145/29 93/118/29 94/122/29 57/144/29
f 53/146/28 92/115/28 93/118/28 55/145/28
f 51/147/27 91/108/27 92/112/27 53/148/27
f 49/149/26 90/104/26 91/108/26 51/147/26
f 47/150/25 89/100/25 90/104/25 49/149/25
f 45/151/24 88/96/24 89/100/24 47/150/24
f 43/152/23 87/92/23 88/96/23 45/151/23
f 41/153/22 86/88/22 87/92/22 43/152/22
f 39/154/21 85/84/21 86/88/21 41/153/21
f 37/155/20 84/80/20 85/84/20 39/154/20
f 35/156/19 83/77/19 84/80/19 37/155/19
f 33/157/18 82/70/18 83/74/18 35/158/18
f 31/159/17 81/66/17 82/70/17 33/157/17
f 29/160/16 80/62/16 81/66/16 31/159/16
f 27/161/15 79/58/15 80/62/15 29/160/15
f 25/162/14 78/54/14 79/58/14 27/161/14
f 23/163/13 77/50/13 78/54/13 25/162/13
f 21/164/12 76/46/12 77/50/12 23/163/12
f 19/165/11 75/43/11 76/46/11 21/164/11
f 17/166/10 74/36/10 75/40/10 19/165/10
f 15/167/9 73/32/9 74/36/9 17/166/9
f 13/168/8 72/28/8 73/32/8 15/167/8
f 11/169/7 71/24/7 72/28/7 13/168/7
f 9/170/6 70/20/6 71/24/6 11/169/6
f 7/171/5 69/16/5 70/20/5 9/170/5
f 5/172/4 68/13/4 69/16/4 7/171/4
f 3/140/3 67/7/3 68/10/3 5/173/3
