# Blender v2.79 (sub 0) OBJ File: 'tlokp1.blend'
# www.blender.org
o Tlok_Cube.002
v -1.479404 -0.037380 0.501105
v -0.448124 7.473694 0.503598
v -1.479404 -0.037380 -0.413987
v -0.448124 7.473694 -0.411494
v 1.587859 0.039009 0.509918
v 0.466968 7.473694 0.503598
v 1.587859 0.039009 -0.405173
v 0.466968 7.473694 -0.411494
v -1.493670 2.224298 0.503598
v -1.493670 2.224298 -0.411494
v 1.573593 2.300688 -0.402680
v 1.573593 2.300688 0.512411
v -0.255522 2.230320 -0.436500
v -0.448124 2.333248 0.503598
v -0.448124 2.333248 -0.411494
v 0.466968 2.333248 -0.411494
v 0.466968 2.333248 0.503598
v -1.483256 0.573209 -0.413314
v 1.584007 0.649598 -0.404500
v 1.584007 0.649598 0.510591
v -1.483256 0.573209 0.501778
v 0.982659 0.023937 -0.406912
v 0.303113 7.473607 -0.407429
v 0.982659 0.023937 0.508179
v 0.303113 7.473607 0.507663
v 0.968393 2.285615 0.510672
v 0.968393 2.285615 -0.404419
v 0.286411 2.333248 0.503598
v 0.286411 2.333248 -0.411494
v 0.978808 0.634526 -0.406239
v 0.978808 0.634526 0.508852
v -0.939607 -0.023937 -0.412436
v -0.287080 7.473694 0.503598
v -0.953873 2.237742 0.505149
v -0.287080 2.333248 0.503598
v -0.943458 0.586652 0.503329
v -0.287080 7.473694 -0.411494
v -0.939607 -0.023937 0.502656
v -0.953873 2.237742 -0.409943
v -0.287080 2.333248 -0.411494
v -0.943458 0.586652 -0.411763
vt 0.690871 0.000000
vt 0.793914 0.601178
vt 0.690871 0.601178
vt 0.484821 0.876975
vt 0.470022 0.275775
vt 0.490353 0.275907
vt 0.793914 0.000000
vt 0.896957 0.601177
vt 0.793914 0.601177
vt 0.205843 0.000118
vt 0.227627 0.601098
vt 0.209494 0.601216
vt 0.690871 0.601485
vt 0.793913 0.671979
vt 0.690871 0.672286
vt 0.103043 0.985042
vt 0.121175 0.878021
vt 0.121175 0.985042
vt 0.284643 0.804972
vt 0.345435 0.613070
vt 0.345435 0.806144
vt 1.000000 0.264511
vt 0.896957 0.071529
vt 1.000000 0.071411
vt 0.413593 0.269824
vt 0.345435 0.078064
vt 0.413593 0.076749
vt 0.896956 0.672706
vt 0.793913 0.865689
vt 0.793913 0.672588
vt 0.284643 0.611897
vt 0.896953 0.866660
vt 0.793913 0.995161
vt 0.793913 0.865807
vt 0.345435 0.271138
vt 0.103043 1.000000
vt 0.000000 0.877545
vt 0.103043 0.877545
vt 0.896956 0.601296
vt 0.793913 0.601178
vt 0.345435 0.006663
vt 0.413593 0.005348
vt 0.896957 0.000118
vt 1.000000 0.000000
vt 0.284643 0.876373
vt 0.345435 0.877545
vt 0.000000 0.870882
vt 0.068158 0.800796
vt 0.068158 0.872197
vt 0.630079 0.072573
vt 0.630079 0.001173
vt 0.630078 0.265648
vt 0.124586 0.601770
vt 0.068158 0.607722
vt 0.000000 0.606407
vt 0.000000 0.799481
vt 0.187626 0.984566
vt 0.206075 0.878021
vt 0.206075 0.985042
vt 0.793913 0.896861
vt 0.690871 0.897169
vt 0.139386 0.000570
vt 0.144917 0.601638
vt 0.551279 0.877427
vt 0.554929 0.276329
vt 0.569412 0.877545
vt 0.573063 0.276447
vt 0.793913 0.960011
vt 0.690871 0.960319
vt 0.690870 0.264475
vt 0.690871 0.071401
vt 0.690871 0.000000
vt 0.187626 0.877545
vt 0.793914 0.000000
vt 0.466372 0.876873
vt 0.896957 0.000000
vt 0.223977 0.000000
vt 0.793913 0.601178
vt 0.103043 0.878021
vt 0.896957 0.264629
vt 0.896956 0.865807
vt 0.896953 0.996014
vt 0.000000 1.000000
vt 0.120936 0.000672
vn -1.0000 0.0000 0.0000
vn 0.0000 0.0008 -1.0000
vn 1.0000 0.0000 0.0000
vn 0.0000 0.0000 1.0000
vn 0.0249 -0.9997 0.0000
vn 0.0000 1.0000 0.0000
vn -0.0028 -0.0011 1.0000
vn 1.0000 0.0063 0.0000
vn 0.0028 0.0011 -1.0000
vn -1.0000 -0.0063 0.0000
vn -0.0038 0.0362 0.9993
vn 0.0294 0.9996 0.0000
vn 0.0052 -0.0933 -0.9956
vn -0.1036 0.9946 0.0000
vn 0.0048 -0.0789 -0.9969
vn -0.0052 0.0933 0.9956
vn -0.0005 1.0000 0.0000
vn 0.0000 -0.0008 1.0000
vn 0.0000 0.0000 -1.0000
vn 0.0038 -0.0362 -0.9993
vn -0.0048 0.0789 0.9969
vn 0.0001 1.0000 0.0000
vn -0.0248 0.0000 -0.9997
vn 0.0000 0.0162 0.9999
vn 0.0000 -0.1469 -0.9892
vn 0.0000 -0.0162 -0.9999
vn 0.0000 0.1469 0.9892
vn 0.0248 0.0000 0.9997
vn 0.0069 0.0008 -1.0000
vn -0.0069 -0.0008 1.0000
s off
f 2/1/1 15/2/1 14/3/1
f 23/4/2 16/5/2 29/6/2
f 8/7/3 17/8/3 16/9/3
f 33/10/4 14/11/4 35/12/4
f 7/13/5 24/14/5 22/15/5
f 4/16/6 33/17/6 37/18/6
f 36/19/7 9/20/7 21/21/7
f 11/22/8 20/23/8 19/24/8
f 27/25/9 19/26/9 30/27/9
f 21/28/10 10/29/10 18/30/10
f 34/31/11 14/11/11 9/20/11
f 11/32/12 17/33/12 12/34/12
f 27/25/13 16/5/13 11/35/13
f 14/36/14 10/37/14 9/38/14
f 1/39/10 18/30/10 3/40/10
f 30/27/9 7/41/9 22/42/9
f 19/24/8 5/43/8 7/44/8
f 38/45/7 21/21/7 1/46/7
f 5/47/7 31/48/7 24/49/7
f 41/50/9 22/42/9 32/51/9
f 39/52/15 29/6/15 27/25/15
f 17/53/16 26/54/16 12/55/16
f 39/52/9 30/27/9 41/50/9
f 20/56/7 26/54/7 31/48/7
f 23/57/17 6/58/17 8/59/17
f 22/15/5 38/60/5 32/61/5
f 17/53/18 25/62/18 28/63/18
f 37/64/19 29/6/19 40/65/19
f 4/66/19 40/65/19 15/67/19
f 32/61/5 1/68/5 3/69/5
f 10/70/9 41/50/9 18/71/9
f 15/67/20 39/52/20 10/70/20
f 18/71/9 32/51/9 3/72/9
f 24/49/7 36/19/7 38/45/7
f 28/63/21 34/31/21 26/54/21
f 31/48/7 34/31/7 36/19/7
f 23/57/22 33/17/22 25/73/22
f 28/63/4 33/10/4 35/12/4
f 2/1/1 4/74/1 15/2/1
f 23/4/23 8/75/23 16/5/23
f 8/7/3 6/76/3 17/8/3
f 33/10/4 2/77/4 14/11/4
f 7/13/5 5/78/5 24/14/5
f 4/16/6 2/79/6 33/17/6
f 36/19/7 34/31/7 9/20/7
f 11/22/8 12/80/8 20/23/8
f 27/25/9 11/35/9 19/26/9
f 21/28/10 9/81/10 10/29/10
f 34/31/24 35/12/24 14/11/24
f 11/32/12 16/82/12 17/33/12
f 27/25/25 29/6/25 16/5/25
f 14/36/14 15/83/14 10/37/14
f 1/39/10 21/28/10 18/30/10
f 30/27/9 19/26/9 7/41/9
f 19/24/8 20/23/8 5/43/8
f 38/45/7 36/19/7 21/21/7
f 5/47/7 20/56/7 31/48/7
f 41/50/9 30/27/9 22/42/9
f 39/52/26 40/65/26 29/6/26
f 17/53/27 28/63/27 26/54/27
f 39/52/9 27/25/9 30/27/9
f 20/56/7 12/55/7 26/54/7
f 23/57/17 25/73/17 6/58/17
f 22/15/5 24/14/5 38/60/5
f 17/53/28 6/84/28 25/62/28
f 37/64/29 23/4/29 29/6/29
f 4/66/19 37/64/19 40/65/19
f 32/61/5 38/60/5 1/68/5
f 10/70/9 39/52/9 41/50/9
f 15/67/26 40/65/26 39/52/26
f 18/71/9 41/50/9 32/51/9
f 24/49/7 31/48/7 36/19/7
f 28/63/24 35/12/24 34/31/24
f 31/48/7 26/54/7 34/31/7
f 23/57/22 37/18/22 33/17/22
f 28/63/30 25/62/30 33/10/30
