# Blender v2.79 (sub 0) OBJ File: ''
# www.blender.org
o Cylinder
v -0.001004 -0.001091 -0.582679
v -0.059057 3.062575 -0.208388
v 0.105568 -0.001091 -0.572183
v -0.031975 3.062575 -0.205720
v 0.208044 -0.001091 -0.541097
v -0.005933 3.062575 -0.197821
v 0.302486 -0.001091 -0.490616
v 0.018067 3.062575 -0.184992
v 0.385266 -0.001091 -0.422681
v 0.039103 3.062575 -0.167729
v 0.453201 -0.001091 -0.339902
v 0.056367 3.062575 -0.146692
v 0.503681 -0.001091 -0.245459
v 0.069195 3.062575 -0.122692
v 0.534767 -0.001091 -0.142983
v 0.077095 3.062575 -0.096651
v 0.545264 -0.001091 -0.036412
v 0.079762 3.062575 -0.069569
v 0.534767 -0.001091 0.070160
v 0.077095 3.062575 -0.042487
v 0.503681 -0.001091 0.172636
v 0.069195 3.062575 -0.016445
v 0.453201 -0.001091 0.267078
v 0.056367 3.062575 0.007555
v 0.385266 -0.001091 0.349858
v 0.039103 3.062575 0.028591
v 0.302486 -0.001091 0.417793
v 0.018067 3.062575 0.045855
v 0.208044 -0.001091 0.468274
v -0.005933 3.062575 0.058683
v 0.105567 -0.001091 0.499359
v -0.031975 3.062575 0.066583
v -0.001004 -0.001091 0.509856
v -0.059057 3.062575 0.069250
v -0.107576 -0.001091 0.499359
v -0.086139 3.062575 0.066583
v -0.210052 -0.001091 0.468274
v -0.112180 3.062575 0.058683
v -0.304494 -0.001091 0.417793
v -0.136180 3.062575 0.045855
v -0.387274 -0.001091 0.349858
v -0.157217 3.062575 0.028591
v -0.455209 -0.001091 0.267078
v -0.174480 3.062575 0.007555
v -0.505689 -0.001091 0.172635
v -0.187309 3.062575 -0.016445
v -0.536775 -0.001091 0.070159
v -0.195208 3.062575 -0.042487
v -0.547271 -0.001091 -0.036412
v -0.197876 3.062575 -0.069569
v -0.536775 -0.001091 -0.142984
v -0.195208 3.062575 -0.096651
v -0.505689 -0.001091 -0.245460
v -0.187309 3.062575 -0.122693
v -0.455208 -0.001091 -0.339902
v -0.174480 3.062575 -0.146693
v -0.387273 -0.001091 -0.422682
v -0.157216 3.062575 -0.167729
v -0.304493 -0.001091 -0.490617
v -0.136180 3.062575 -0.184993
v -0.210051 -0.001091 -0.541097
v -0.112180 3.062575 -0.197821
v -0.107575 -0.001091 -0.572183
v -0.086139 3.062575 -0.205720
v -0.005731 0.250719 -0.166600
v 0.021351 0.250719 -0.163933
v 0.047393 0.250719 -0.156033
v 0.071393 0.250719 -0.143205
v 0.092429 0.250719 -0.125941
v 0.109693 0.250719 -0.104905
v 0.122521 0.250719 -0.080905
v 0.130421 0.250719 -0.054863
v 0.133088 0.250719 -0.027781
v 0.130421 0.250719 -0.000699
v 0.122521 0.250719 0.025342
v 0.109693 0.250719 0.049342
v 0.092429 0.250719 0.070378
v 0.071393 0.250719 0.087642
v 0.047393 0.250719 0.100471
v 0.021351 0.250719 0.108370
v -0.005731 0.250719 0.111038
v -0.032813 0.250719 0.108370
v -0.058855 0.250719 0.100471
v -0.082855 0.250719 0.087642
v -0.103891 0.250719 0.070378
v -0.121155 0.250719 0.049342
v -0.133983 0.250719 0.025342
v -0.141882 0.250719 -0.000699
v -0.144550 0.250719 -0.027781
v -0.141882 0.250719 -0.054864
v -0.133983 0.250719 -0.080905
v -0.121154 0.250719 -0.104905
v -0.103891 0.250719 -0.125941
v -0.082854 0.250719 -0.143205
v -0.058854 0.250719 -0.156033
v -0.032813 0.250719 -0.163933
vt 1.000000 0.001506
vt 0.992347 0.999804
vt 0.992347 0.001309
vt 0.983844 0.999587
vt 0.983844 0.001092
vt 0.974818 0.999358
vt 0.974818 0.000863
vt 0.965614 0.999125
vt 0.965614 0.000631
vt 0.956587 0.998898
vt 0.956587 0.000403
vt 0.948084 0.998685
vt 0.948084 0.000190
vt 0.940431 0.998494
vt 0.940431 0.000000
vt 0.808257 0.000410
vt 0.801747 0.998743
vt 0.801747 0.000249
vt 0.794092 0.998618
vt 0.794092 0.000124
vt 0.785587 0.998534
vt 0.785587 0.000040
vt 0.776557 0.998494
vt 0.776557 0.000000
vt 0.767351 0.000005
vt 0.767351 0.998499
vt 0.758322 0.000056
vt 0.758321 0.998550
vt 0.749816 0.000150
vt 0.749816 0.998644
vt 0.742161 0.000283
vt 0.742161 0.998777
vt 0.735652 0.000451
vt 0.940431 0.998494
vt 0.932779 0.000196
vt 0.940431 0.000000
vt 0.932779 0.998691
vt 0.924276 0.000413
vt 0.924276 0.998908
vt 0.915249 0.000642
vt 0.915249 0.999137
vt 0.906045 0.000875
vt 0.906045 0.999369
vt 0.897018 0.001102
vt 0.897019 0.999596
vt 0.888515 0.001315
vt 0.888515 0.999809
vt 0.880863 0.001506
vt 0.808257 0.000410
vt 0.814767 0.998743
vt 0.808257 0.998904
vt 0.814767 0.000249
vt 0.822422 0.998619
vt 0.822422 0.000124
vt 0.830927 0.998534
vt 0.830928 0.000040
vt 0.839957 0.998494
vt 0.849163 0.000005
vt 0.849163 0.998499
vt 0.858193 0.000056
vt 0.858193 0.998550
vt 0.866698 0.000150
vt 0.866698 0.998644
vt 0.051340 0.385981
vt 0.093473 0.439853
vt 0.042134 0.484066
vt 0.874353 0.000283
vt 0.874353 0.998778
vt 0.880863 0.000451
vt 0.880863 0.998946
vt 0.130268 0.007416
vt 0.360760 0.136697
vt 0.237560 0.378564
vt 0.408886 0.069966
vt 0.513205 0.169728
vt 0.388759 0.101575
vt 0.434503 0.043085
vt 0.518320 0.161696
vt 0.464625 0.021965
vt 0.524830 0.154865
vt 0.498095 0.007417
vt 0.532485 0.149498
vt 0.533626 0.000000
vt 0.540990 0.145801
vt 0.569853 0.000000
vt 0.550019 0.143916
vt 0.605385 0.007416
vt 0.559225 0.143916
vt 0.638855 0.021965
vt 0.568255 0.145801
vt 0.668977 0.043085
vt 0.576760 0.149498
vt 0.694593 0.069966
vt 0.584415 0.154865
vt 0.714720 0.101575
vt 0.590925 0.161696
vt 0.728584 0.136697
vt 0.596039 0.169728
vt 0.735651 0.173982
vt 0.599562 0.178654
vt 0.601358 0.197789
vt 0.735651 0.211998
vt 0.599562 0.207264
vt 0.728584 0.249284
vt 0.596039 0.216190
vt 0.714720 0.284406
vt 0.590925 0.224222
vt 0.694593 0.316015
vt 0.584415 0.231053
vt 0.668977 0.342896
vt 0.576760 0.236421
vt 0.638855 0.364016
vt 0.568255 0.240117
vt 0.605385 0.378564
vt 0.559225 0.242002
vt 0.569853 0.385981
vt 0.550019 0.242002
vt 0.533626 0.385981
vt 0.540990 0.240117
vt 0.498095 0.378564
vt 0.532485 0.236420
vt 0.464625 0.364016
vt 0.524830 0.231053
vt 0.434503 0.342896
vt 0.518320 0.224222
vt 0.408886 0.316014
vt 0.513205 0.216190
vt 0.388759 0.284405
vt 0.509682 0.207264
vt 0.374896 0.249283
vt 0.507886 0.197789
vt 0.367828 0.211998
vt 0.367828 0.173982
vt 0.374896 0.136697
vt 0.507886 0.188129
vt 0.509682 0.178654
vt 1.000000 1.000000
vt 0.808257 0.998904
vt 0.735651 0.998945
vt 0.880863 1.000000
vt 0.839957 0.000000
vt 0.033104 0.482181
vt 0.024599 0.478484
vt 0.016944 0.473117
vt 0.010434 0.466286
vt 0.005319 0.458253
vt 0.001796 0.449328
vt 0.000000 0.439853
vt 0.000000 0.430193
vt 0.001796 0.420718
vt 0.005319 0.411793
vt 0.010434 0.403760
vt 0.016944 0.396929
vt 0.024599 0.391562
vt 0.033104 0.387865
vt 0.042134 0.385981
vt 0.060369 0.387865
vt 0.083039 0.403760
vt 0.068875 0.391562
vt 0.076530 0.396929
vt 0.088154 0.411793
vt 0.091677 0.420718
vt 0.093473 0.430193
vt 0.091677 0.449328
vt 0.088154 0.458253
vt 0.083039 0.466286
vt 0.076530 0.473117
vt 0.068875 0.478484
vt 0.060369 0.482181
vt 0.051340 0.484066
vt 0.007068 0.249283
vt 0.000000 0.211998
vt 0.020932 0.101575
vt 0.000000 0.173982
vt 0.007068 0.136697
vt 0.041059 0.069966
vt 0.066676 0.043085
vt 0.096798 0.021965
vt 0.165800 0.000000
vt 0.202028 0.000000
vt 0.237560 0.007416
vt 0.271030 0.021964
vt 0.301152 0.043085
vt 0.326770 0.069966
vt 0.346897 0.101575
vt 0.367828 0.173982
vt 0.367828 0.211998
vt 0.360760 0.249284
vt 0.346897 0.284406
vt 0.326769 0.316014
vt 0.301152 0.342896
vt 0.271030 0.364016
vt 0.202028 0.385981
vt 0.096798 0.364016
vt 0.165800 0.385981
vt 0.130268 0.378564
vt 0.066676 0.342895
vt 0.041059 0.316014
vt 0.020931 0.284405
vt 0.601358 0.188129
vn 0.0980 -0.0129 -0.9951
vn 0.2903 -0.0087 -0.9569
vn 0.4714 -0.0042 -0.8819
vn 0.6344 0.0005 -0.7730
vn 0.7730 0.0052 -0.6344
vn 0.8819 0.0097 -0.4714
vn 0.9568 0.0138 -0.2903
vn 0.9950 0.0174 -0.0980
vn 0.9950 0.0203 0.0980
vn 0.9567 0.0225 0.2902
vn 0.8817 0.0237 0.4713
vn 0.7728 0.0241 0.6342
vn 0.6342 0.0235 0.7728
vn 0.4713 0.0220 0.8817
vn 0.2902 0.0197 0.9568
vn 0.0980 0.0166 0.9950
vn -0.0980 0.0129 0.9951
vn -0.2903 0.0087 0.9569
vn -0.4714 0.0042 0.8819
vn -0.6344 -0.0005 0.7730
vn -0.7730 -0.0052 0.6344
vn -0.8819 -0.0097 0.4714
vn -0.9568 -0.0138 0.2903
vn -0.9950 -0.0174 0.0980
vn -0.9950 -0.0203 -0.0980
vn -0.9567 -0.0225 -0.2902
vn -0.8817 -0.0237 -0.4713
vn -0.7728 -0.0241 -0.6342
vn -0.6342 -0.0235 -0.7728
vn -0.4713 -0.0220 -0.8817
vn 0.0000 1.0000 -0.0000
vn -0.2902 -0.0197 -0.9568
vn -0.0980 -0.0166 -0.9950
vn 0.0000 -1.0000 -0.0000
vn -0.0510 0.8542 -0.5175
vn -0.1513 0.8535 -0.4987
vn -0.2463 0.8526 -0.4608
vn -0.3325 0.8516 -0.4052
vn -0.4065 0.8506 -0.3336
vn -0.4653 0.8495 -0.2487
vn -0.5067 0.8483 -0.1537
vn -0.5286 0.8472 -0.0521
vn -0.5302 0.8462 0.0522
vn -0.5112 0.8453 0.1551
vn -0.4722 0.8446 0.2524
vn -0.4145 0.8441 0.3402
vn -0.3405 0.8437 0.4149
vn -0.2531 0.8436 0.4735
vn -0.1558 0.8438 0.5136
vn -0.0526 0.8441 0.5336
vn 0.0525 0.8447 0.5327
vn 0.1550 0.8454 0.5111
vn 0.2511 0.8463 0.4698
vn 0.3369 0.8474 0.4105
vn 0.4091 0.8485 0.3358
vn 0.4652 0.8496 0.2486
vn 0.5030 0.8507 0.1526
vn 0.5214 0.8517 0.0514
vn 0.5199 0.8527 -0.0512
vn 0.4986 0.8535 -0.1512
vn 0.4585 0.8542 -0.2451
vn 0.4013 0.8547 -0.3293
vn 0.3290 0.8550 -0.4009
vn 0.2444 0.8551 -0.4572
vn 0.1506 0.8550 -0.4963
vn 0.0509 0.8547 -0.5167
vn 0.0000 1.0000 -0.0001
vn 0.0000 1.0000 0.0001
s off
f 65/1/1 4/2/1 66/3/1
f 66/3/2 6/4/2 67/5/2
f 67/5/3 8/6/3 68/7/3
f 68/7/4 10/8/4 69/9/4
f 69/9/5 12/10/5 70/11/5
f 70/11/6 14/12/6 71/13/6
f 71/13/7 16/14/7 72/15/7
f 72/16/8 18/17/8 73/18/8
f 73/18/9 20/19/9 74/20/9
f 74/20/10 22/21/10 75/22/10
f 75/22/11 24/23/11 76/24/11
f 24/23/12 77/25/12 76/24/12
f 26/26/13 78/27/13 77/25/13
f 28/28/14 79/29/14 78/27/14
f 30/30/15 80/31/15 79/29/15
f 32/32/16 81/33/16 80/31/16
f 34/34/17 82/35/17 81/36/17
f 36/37/18 83/38/18 82/35/18
f 38/39/19 84/40/19 83/38/19
f 40/41/20 85/42/20 84/40/20
f 42/43/21 86/44/21 85/42/21
f 44/45/22 87/46/22 86/44/22
f 46/47/23 88/48/23 87/46/23
f 48/49/24 89/50/24 88/51/24
f 50/52/25 90/53/25 89/50/25
f 52/54/26 91/55/26 90/53/26
f 54/56/27 92/57/27 91/55/27
f 92/57/28 58/58/28 93/59/28
f 93/59/29 60/60/29 94/61/29
f 94/61/30 62/62/30 95/63/30
f 38/64/31 22/65/31 6/66/31
f 95/63/32 64/67/32 96/68/32
f 96/68/33 2/69/33 65/70/33
f 15/71/34 31/72/34 47/73/34
f 63/74/35 65/75/35 1/76/35
f 61/77/36 96/78/36 63/74/36
f 59/79/37 95/80/37 61/77/37
f 57/81/38 94/82/38 59/79/38
f 55/83/39 93/84/39 57/81/39
f 53/85/40 92/86/40 55/83/40
f 51/87/41 91/88/41 53/85/41
f 49/89/42 90/90/42 51/87/42
f 47/91/43 89/92/43 49/89/43
f 45/93/44 88/94/44 47/91/44
f 43/95/45 87/96/45 45/93/45
f 41/97/46 86/98/46 43/95/46
f 39/99/47 85/100/47 41/97/47
f 83/101/48 39/99/48 37/102/48
f 82/103/49 37/102/49 35/104/49
f 81/105/50 35/104/50 33/106/50
f 80/107/51 33/106/51 31/108/51
f 79/109/52 31/108/52 29/110/52
f 78/111/53 29/110/53 27/112/53
f 77/113/54 27/112/54 25/114/54
f 76/115/55 25/114/55 23/116/55
f 75/117/56 23/116/56 21/118/56
f 74/119/57 21/118/57 19/120/57
f 73/121/58 19/120/58 17/122/58
f 72/123/59 17/122/59 15/124/59
f 71/125/60 15/124/60 13/126/60
f 70/127/61 13/126/61 11/128/61
f 69/129/62 11/128/62 9/130/62
f 68/131/63 9/130/63 7/132/63
f 5/133/64 68/131/64 7/132/64
f 3/134/65 67/135/65 5/133/65
f 1/76/66 66/136/66 3/134/66
f 65/1/1 2/137/1 4/2/1
f 66/3/2 4/2/2 6/4/2
f 67/5/3 6/4/3 8/6/3
f 68/7/4 8/6/4 10/8/4
f 69/9/5 10/8/5 12/10/5
f 70/11/6 12/10/6 14/12/6
f 71/13/7 14/12/7 16/14/7
f 72/16/8 16/138/8 18/17/8
f 73/18/9 18/17/9 20/19/9
f 74/20/10 20/19/10 22/21/10
f 75/22/11 22/21/11 24/23/11
f 24/23/12 26/26/12 77/25/12
f 26/26/13 28/28/13 78/27/13
f 28/28/14 30/30/14 79/29/14
f 30/30/15 32/32/15 80/31/15
f 32/32/16 34/139/16 81/33/16
f 34/34/17 36/37/17 82/35/17
f 36/37/18 38/39/18 83/38/18
f 38/39/19 40/41/19 84/40/19
f 40/41/20 42/43/20 85/42/20
f 42/43/21 44/45/21 86/44/21
f 44/45/22 46/47/22 87/46/22
f 46/47/23 48/140/23 88/48/23
f 48/49/24 50/52/24 89/50/24
f 50/52/25 52/54/25 90/53/25
f 52/54/26 54/56/26 91/55/26
f 54/56/27 56/141/27 92/57/27
f 92/57/28 56/141/28 58/58/28
f 93/59/29 58/58/29 60/60/29
f 94/61/30 60/60/30 62/62/30
f 6/66/31 4/142/31 2/143/31
f 2/143/31 64/144/31 6/66/31
f 64/144/67 62/145/67 6/66/67
f 62/145/31 60/146/31 58/147/31
f 58/147/31 56/148/31 62/145/31
f 56/148/31 54/149/31 62/145/31
f 54/149/31 52/150/31 50/151/31
f 50/151/31 48/152/31 54/149/31
f 48/152/31 46/153/31 54/149/31
f 46/153/31 44/154/31 38/64/31
f 44/154/31 42/155/31 38/64/31
f 42/155/68 40/156/68 38/64/68
f 38/64/31 36/157/31 30/158/31
f 36/157/67 34/159/67 30/158/67
f 34/159/67 32/160/67 30/158/67
f 30/158/67 28/161/67 26/162/67
f 26/162/31 24/163/31 22/65/31
f 22/65/31 20/164/31 18/165/31
f 18/165/31 16/166/31 14/167/31
f 14/167/31 12/168/31 6/66/31
f 12/168/67 10/169/67 6/66/67
f 10/169/31 8/170/31 6/66/31
f 30/158/31 26/162/31 38/64/31
f 26/162/31 22/65/31 38/64/31
f 22/65/31 18/165/31 6/66/31
f 18/165/31 14/167/31 6/66/31
f 6/66/31 62/145/31 54/149/31
f 54/149/31 46/153/31 38/64/31
f 6/66/31 54/149/31 38/64/31
f 95/63/32 62/62/32 64/67/32
f 96/68/33 64/67/33 2/69/33
f 63/171/34 1/172/34 7/173/34
f 1/172/34 3/174/34 7/173/34
f 3/174/34 5/175/34 7/173/34
f 7/173/34 9/176/34 15/71/34
f 9/176/34 11/177/34 15/71/34
f 11/177/34 13/178/34 15/71/34
f 15/71/34 17/179/34 19/180/34
f 19/180/34 21/181/34 15/71/34
f 21/181/34 23/182/34 15/71/34
f 23/182/34 25/183/34 31/72/34
f 25/183/34 27/184/34 31/72/34
f 27/184/34 29/185/34 31/72/34
f 31/72/34 33/186/34 35/187/34
f 35/187/34 37/188/34 39/189/34
f 39/189/34 41/190/34 47/73/34
f 41/190/34 43/191/34 47/73/34
f 43/191/34 45/192/34 47/73/34
f 47/73/34 49/193/34 55/194/34
f 49/193/34 51/195/34 55/194/34
f 51/195/34 53/196/34 55/194/34
f 55/194/34 57/197/34 59/198/34
f 59/198/34 61/199/34 63/171/34
f 31/72/34 35/187/34 47/73/34
f 35/187/34 39/189/34 47/73/34
f 55/194/34 59/198/34 47/73/34
f 59/198/34 63/171/34 47/73/34
f 63/171/34 7/173/34 15/71/34
f 15/71/34 23/182/34 31/72/34
f 63/171/34 15/71/34 47/73/34
f 63/74/35 96/78/35 65/75/35
f 61/77/36 95/80/36 96/78/36
f 59/79/37 94/82/37 95/80/37
f 57/81/38 93/84/38 94/82/38
f 55/83/39 92/86/39 93/84/39
f 53/85/40 91/88/40 92/86/40
f 51/87/41 90/90/41 91/88/41
f 49/89/42 89/92/42 90/90/42
f 47/91/43 88/94/43 89/92/43
f 45/93/44 87/96/44 88/94/44
f 43/95/45 86/98/45 87/96/45
f 41/97/46 85/100/46 86/98/46
f 39/99/47 84/200/47 85/100/47
f 83/101/48 84/200/48 39/99/48
f 82/103/49 83/101/49 37/102/49
f 81/105/50 82/103/50 35/104/50
f 80/107/51 81/105/51 33/106/51
f 79/109/52 80/107/52 31/108/52
f 78/111/53 79/109/53 29/110/53
f 77/113/54 78/111/54 27/112/54
f 76/115/55 77/113/55 25/114/55
f 75/117/56 76/115/56 23/116/56
f 74/119/57 75/117/57 21/118/57
f 73/121/58 74/119/58 19/120/58
f 72/123/59 73/121/59 17/122/59
f 71/125/60 72/123/60 15/124/60
f 70/127/61 71/125/61 13/126/61
f 69/129/62 70/127/62 11/128/62
f 68/131/63 69/129/63 9/130/63
f 5/133/64 67/135/64 68/131/64
f 3/134/65 66/136/65 67/135/65
f 1/76/66 65/75/66 66/136/66
